# xmcd
# 
# Track frame offsets:
#     150
#     6887
#     25748
#     42998
#     57060
#     74422
#     90594
#     112888
#     130313
#     149227
#     165287
#     184710
#     201319
# 
# Disc length: 2820
# 
# Revision: 1
# Processed by: cddbd v1.5.2PL0 Copyright (c) Steve Scherf et al.
# Submitted via: BonkEnc v1.0.8
# 
DISCID=b10b020d
DTITLE=Various Artist - ポケットモンスター TVアニメ主題歌ソング集 AG編 パーフェクトベスト2 2003-2006
DYEAR=2006
DGENRE=Anime
TTITLE0=KAZUMI MITOME/ポケモンシンフォニックメドレー（TVバージョン）
TTITLE1=GARDEN/アドバンス・アドベンチャー
TTITLE2=松本梨香/チャレンジャー!!
TTITLE3=田村直美とヒマワリ合唱団/いっぱいサマー!!
TTITLE4=ニャース（犬山犬子）＆ノルソル合唱団/ポルカ・オ・ドルカ
TTITLE5=高屋亜希那/バトルフロンティア
TTITLE6=江崎とし子/スマイル（NEWバージョン）
TTITLE7=GARDEN/GLORY DAY 〜輝くその日〜
TTITLE8=江崎とし子/そこに空があるから
TTITLE9=金沢明子/ポケモンかぞえうた
TTITLE10=KABA.ちゃん with 愉快な仲間×3/ポケモン言えるかな？2004
TTITLE11=ベッキー（＆ポケパークKIDS合唱団）/ハロー!サンキュー!
TTITLE12=高屋亜希那（Akina Takaya）/バトルフロンティア（バラードバージョン）
EXTD=YEAR: 2006
EXTT0=
EXTT1=
EXTT2=
EXTT3=
EXTT4=
EXTT5=
EXTT6=
EXTT7=
EXTT8=
EXTT9=
EXTT10=
EXTT11=
EXTT12=
PLAYORDER=
